<mxfile host="app.diagrams.net" modified="2024-03-19T20:26:37.255Z" agent="Mozilla/5.0 (Windows NT 10.0; Win64; x64) AppleWebKit/537.36 (KHTML, like Gecko) Chrome/122.0.0.0 Safari/537.36 Edg/122.0.0.0" etag="3e8dbEpGKrz4IhiYHXpi" version="24.0.2" type="device">
  <diagram name="Page-1" id="10a91c8b-09ff-31b1-d368-03940ed4cc9e">
    <mxGraphModel dx="2589" dy="813" grid="1" gridSize="10" guides="1" tooltips="1" connect="1" arrows="1" fold="1" page="1" pageScale="1" pageWidth="1100" pageHeight="850" background="none" math="0" shadow="0">
      <root>
        <mxCell id="0" />
        <mxCell id="1" parent="0" />
        <mxCell id="62893188c0fa7362-1" value="&lt;font style=&quot;font-size: 14px;&quot;&gt;Root&lt;/font&gt;" style="whiteSpace=wrap;html=1;rounded=1;shadow=1;labelBackgroundColor=none;strokeWidth=1;fontFamily=Verdana;fontSize=12;align=center;fillColor=#09555B;strokeColor=#BAC8D3;fontColor=#EEEEEE;" parent="1" vertex="1">
          <mxGeometry x="490" y="40" width="120" height="60" as="geometry" />
        </mxCell>
        <mxCell id="y6UDtGSvH8xPCcK1e__a-3" value="&lt;font size=&quot;3&quot;&gt;Bool Expr 1&lt;/font&gt;" style="rounded=0;whiteSpace=wrap;html=1;labelBackgroundColor=none;fillColor=#09555B;strokeColor=#BAC8D3;fontColor=#EEEEEE;" parent="1" vertex="1">
          <mxGeometry x="790" y="150" width="120" height="60" as="geometry" />
        </mxCell>
        <mxCell id="y6UDtGSvH8xPCcK1e__a-10" value="Bool Expr 2" style="rounded=0;whiteSpace=wrap;html=1;strokeColor=#BAC8D3;fontColor=#EEEEEE;fillColor=#09555B;fontSize=16;" parent="1" vertex="1">
          <mxGeometry x="660" y="280" width="120" height="60" as="geometry" />
        </mxCell>
        <mxCell id="y6UDtGSvH8xPCcK1e__a-11" value="Boolean OR" style="rounded=1;whiteSpace=wrap;html=1;strokeColor=#BAC8D3;fontColor=#EEEEEE;fillColor=#09555B;fontSize=16;" parent="1" vertex="1">
          <mxGeometry x="790" y="280" width="120" height="60" as="geometry" />
        </mxCell>
        <mxCell id="y6UDtGSvH8xPCcK1e__a-12" value="Bool Expr 1" style="rounded=1;whiteSpace=wrap;html=1;strokeColor=#BAC8D3;fontColor=#EEEEEE;fillColor=#09555B;fontSize=16;" parent="1" vertex="1">
          <mxGeometry x="920" y="280" width="120" height="60" as="geometry" />
        </mxCell>
        <mxCell id="y6UDtGSvH8xPCcK1e__a-14" value="" style="endArrow=none;html=1;rounded=0;strokeColor=#0B4D6A;entryX=0.5;entryY=1;entryDx=0;entryDy=0;exitX=0.5;exitY=0;exitDx=0;exitDy=0;" parent="1" source="y6UDtGSvH8xPCcK1e__a-10" target="y6UDtGSvH8xPCcK1e__a-3" edge="1">
          <mxGeometry width="50" height="50" relative="1" as="geometry">
            <mxPoint x="860" y="280" as="sourcePoint" />
            <mxPoint x="910" y="230" as="targetPoint" />
          </mxGeometry>
        </mxCell>
        <mxCell id="y6UDtGSvH8xPCcK1e__a-15" value="" style="endArrow=none;html=1;rounded=0;strokeColor=#0B4D6A;entryX=0.5;entryY=1;entryDx=0;entryDy=0;exitX=0.5;exitY=0;exitDx=0;exitDy=0;dashed=1;" parent="1" source="y6UDtGSvH8xPCcK1e__a-11" target="y6UDtGSvH8xPCcK1e__a-3" edge="1">
          <mxGeometry width="50" height="50" relative="1" as="geometry">
            <mxPoint x="960" y="260" as="sourcePoint" />
            <mxPoint x="1010" y="210" as="targetPoint" />
          </mxGeometry>
        </mxCell>
        <mxCell id="y6UDtGSvH8xPCcK1e__a-16" value="" style="endArrow=none;html=1;rounded=0;strokeColor=#0B4D6A;exitX=0.5;exitY=0;exitDx=0;exitDy=0;entryX=0.5;entryY=1;entryDx=0;entryDy=0;dashed=1;" parent="1" source="y6UDtGSvH8xPCcK1e__a-12" target="y6UDtGSvH8xPCcK1e__a-3" edge="1">
          <mxGeometry width="50" height="50" relative="1" as="geometry">
            <mxPoint x="1060" y="260" as="sourcePoint" />
            <mxPoint x="1110" y="210" as="targetPoint" />
          </mxGeometry>
        </mxCell>
        <mxCell id="y6UDtGSvH8xPCcK1e__a-19" value="Bool Expr 3" style="rounded=0;whiteSpace=wrap;html=1;strokeColor=#BAC8D3;fontColor=#EEEEEE;fillColor=#09555B;fontSize=16;" parent="1" vertex="1">
          <mxGeometry x="530" y="393" width="120" height="60" as="geometry" />
        </mxCell>
        <mxCell id="y6UDtGSvH8xPCcK1e__a-20" value="" style="endArrow=none;html=1;rounded=0;strokeColor=#0B4D6A;entryX=0.5;entryY=1;entryDx=0;entryDy=0;exitX=0.5;exitY=0;exitDx=0;exitDy=0;fontSize=16;" parent="1" source="y6UDtGSvH8xPCcK1e__a-19" target="y6UDtGSvH8xPCcK1e__a-10" edge="1">
          <mxGeometry width="50" height="50" relative="1" as="geometry">
            <mxPoint x="870" y="450" as="sourcePoint" />
            <mxPoint x="920" y="400" as="targetPoint" />
          </mxGeometry>
        </mxCell>
        <mxCell id="y6UDtGSvH8xPCcK1e__a-27" value="Boolean AND" style="rounded=1;whiteSpace=wrap;html=1;strokeColor=#BAC8D3;fontColor=#EEEEEE;fillColor=#09555B;fontSize=16;" parent="1" vertex="1">
          <mxGeometry x="660" y="393" width="120" height="60" as="geometry" />
        </mxCell>
        <mxCell id="y6UDtGSvH8xPCcK1e__a-28" value="Bool Expr 2" style="rounded=1;whiteSpace=wrap;html=1;strokeColor=#BAC8D3;fontColor=#EEEEEE;fillColor=#09555B;fontSize=16;" parent="1" vertex="1">
          <mxGeometry x="790" y="398" width="120" height="60" as="geometry" />
        </mxCell>
        <mxCell id="y6UDtGSvH8xPCcK1e__a-29" value="" style="endArrow=none;html=1;rounded=0;strokeColor=#0B4D6A;entryX=0.5;entryY=1;entryDx=0;entryDy=0;exitX=0.5;exitY=0;exitDx=0;exitDy=0;dashed=1;fontSize=16;" parent="1" source="y6UDtGSvH8xPCcK1e__a-27" target="y6UDtGSvH8xPCcK1e__a-10" edge="1">
          <mxGeometry width="50" height="50" relative="1" as="geometry">
            <mxPoint x="660" y="570" as="sourcePoint" />
            <mxPoint x="710" y="520" as="targetPoint" />
          </mxGeometry>
        </mxCell>
        <mxCell id="y6UDtGSvH8xPCcK1e__a-30" value="" style="endArrow=none;html=1;rounded=0;strokeColor=#0B4D6A;entryX=0.5;entryY=1;entryDx=0;entryDy=0;exitX=0.5;exitY=0;exitDx=0;exitDy=0;dashed=1;fontSize=16;" parent="1" source="y6UDtGSvH8xPCcK1e__a-28" target="y6UDtGSvH8xPCcK1e__a-10" edge="1">
          <mxGeometry width="50" height="50" relative="1" as="geometry">
            <mxPoint x="730" y="530" as="sourcePoint" />
            <mxPoint x="780" y="480" as="targetPoint" />
          </mxGeometry>
        </mxCell>
        <mxCell id="y6UDtGSvH8xPCcK1e__a-31" value="Bool Expr 4" style="rounded=0;whiteSpace=wrap;html=1;strokeColor=#BAC8D3;fontColor=#EEEEEE;fillColor=#09555B;fontSize=16;" parent="1" vertex="1">
          <mxGeometry x="400" y="490" width="120" height="60" as="geometry" />
        </mxCell>
        <mxCell id="y6UDtGSvH8xPCcK1e__a-32" value="Boolean NOT" style="rounded=1;whiteSpace=wrap;html=1;strokeColor=#BAC8D3;fontColor=#EEEEEE;fillColor=#09555B;fontSize=16;" parent="1" vertex="1">
          <mxGeometry x="840" y="500" width="120" height="60" as="geometry" />
        </mxCell>
        <mxCell id="y6UDtGSvH8xPCcK1e__a-34" value="" style="endArrow=none;html=1;rounded=0;strokeColor=#0B4D6A;entryX=0.5;entryY=1;entryDx=0;entryDy=0;exitX=0.5;exitY=0;exitDx=0;exitDy=0;fontSize=16;" parent="1" source="y6UDtGSvH8xPCcK1e__a-31" target="y6UDtGSvH8xPCcK1e__a-19" edge="1">
          <mxGeometry width="50" height="50" relative="1" as="geometry">
            <mxPoint x="440" y="490" as="sourcePoint" />
            <mxPoint x="380" y="440" as="targetPoint" />
          </mxGeometry>
        </mxCell>
        <mxCell id="y6UDtGSvH8xPCcK1e__a-35" value="" style="endArrow=none;html=1;rounded=0;strokeColor=#0B4D6A;entryX=0.5;entryY=1;entryDx=0;entryDy=0;exitX=0.5;exitY=0;exitDx=0;exitDy=0;dashed=1;fontSize=16;" parent="1" source="y6UDtGSvH8xPCcK1e__a-32" target="y6UDtGSvH8xPCcK1e__a-19" edge="1">
          <mxGeometry width="50" height="50" relative="1" as="geometry">
            <mxPoint x="820" y="600" as="sourcePoint" />
            <mxPoint x="870" y="550" as="targetPoint" />
          </mxGeometry>
        </mxCell>
        <mxCell id="y6UDtGSvH8xPCcK1e__a-37" value="Art Expr 1" style="rounded=0;whiteSpace=wrap;html=1;strokeColor=#BAC8D3;fontColor=#EEEEEE;fillColor=#09555B;fontSize=16;" parent="1" vertex="1">
          <mxGeometry x="310" y="720" width="120" height="60" as="geometry" />
        </mxCell>
        <mxCell id="y6UDtGSvH8xPCcK1e__a-38" value="Rel. Operator" style="rounded=1;whiteSpace=wrap;html=1;strokeColor=#BAC8D3;fontColor=#EEEEEE;fillColor=#09555B;fontSize=16;" parent="1" vertex="1">
          <mxGeometry x="480" y="600" width="120" height="60" as="geometry" />
        </mxCell>
        <mxCell id="y6UDtGSvH8xPCcK1e__a-39" value="Bool Expr 5" style="rounded=1;whiteSpace=wrap;html=1;strokeColor=#BAC8D3;fontColor=#EEEEEE;fillColor=#09555B;fontSize=16;" parent="1" vertex="1">
          <mxGeometry x="610" y="600" width="120" height="60" as="geometry" />
        </mxCell>
        <mxCell id="y6UDtGSvH8xPCcK1e__a-42" value="" style="endArrow=none;html=1;rounded=0;strokeColor=#0B4D6A;exitX=0.5;exitY=0;exitDx=0;exitDy=0;fontSize=16;entryX=0.5;entryY=1;entryDx=0;entryDy=0;" parent="1" source="y6UDtGSvH8xPCcK1e__a-37" target="yVUBsPdqC7UKRxRuTg1o-3" edge="1">
          <mxGeometry width="50" height="50" relative="1" as="geometry">
            <mxPoint x="290" y="570" as="sourcePoint" />
            <mxPoint x="270" y="750" as="targetPoint" />
          </mxGeometry>
        </mxCell>
        <mxCell id="y6UDtGSvH8xPCcK1e__a-43" value="" style="endArrow=none;html=1;rounded=0;strokeColor=#0B4D6A;entryX=0.5;entryY=1;entryDx=0;entryDy=0;exitX=0.5;exitY=0;exitDx=0;exitDy=0;dashed=1;fontSize=16;" parent="1" source="y6UDtGSvH8xPCcK1e__a-38" target="y6UDtGSvH8xPCcK1e__a-31" edge="1">
          <mxGeometry width="50" height="50" relative="1" as="geometry">
            <mxPoint x="300" y="770" as="sourcePoint" />
            <mxPoint x="350" y="720" as="targetPoint" />
          </mxGeometry>
        </mxCell>
        <mxCell id="y6UDtGSvH8xPCcK1e__a-44" value="" style="endArrow=none;html=1;rounded=0;strokeColor=#0B4D6A;entryX=0.5;entryY=1;entryDx=0;entryDy=0;exitX=0.5;exitY=0;exitDx=0;exitDy=0;dashed=1;fontSize=16;" parent="1" source="y6UDtGSvH8xPCcK1e__a-39" target="y6UDtGSvH8xPCcK1e__a-31" edge="1">
          <mxGeometry width="50" height="50" relative="1" as="geometry">
            <mxPoint x="430" y="780" as="sourcePoint" />
            <mxPoint x="460" y="550" as="targetPoint" />
          </mxGeometry>
        </mxCell>
        <mxCell id="y6UDtGSvH8xPCcK1e__a-46" value="Art Term" style="rounded=0;whiteSpace=wrap;html=1;strokeColor=#BAC8D3;fontColor=#EEEEEE;fillColor=#09555B;fontSize=16;" parent="1" vertex="1">
          <mxGeometry x="255" y="860" width="120" height="60" as="geometry" />
        </mxCell>
        <mxCell id="y6UDtGSvH8xPCcK1e__a-47" value="Add / Subtract" style="rounded=1;whiteSpace=wrap;html=1;strokeColor=#BAC8D3;fontColor=#EEEEEE;fillColor=#09555B;fontSize=16;" parent="1" vertex="1">
          <mxGeometry x="385" y="860" width="120" height="60" as="geometry" />
        </mxCell>
        <mxCell id="y6UDtGSvH8xPCcK1e__a-48" value="Art Expr 1" style="rounded=1;whiteSpace=wrap;html=1;strokeColor=#BAC8D3;fontColor=#EEEEEE;fillColor=#09555B;fontSize=16;" parent="1" vertex="1">
          <mxGeometry x="515" y="860" width="120" height="60" as="geometry" />
        </mxCell>
        <mxCell id="y6UDtGSvH8xPCcK1e__a-49" value="" style="endArrow=none;html=1;rounded=0;strokeColor=#0B4D6A;entryX=0.5;entryY=1;entryDx=0;entryDy=0;exitX=0.5;exitY=0;exitDx=0;exitDy=0;fontSize=16;" parent="1" source="y6UDtGSvH8xPCcK1e__a-46" target="y6UDtGSvH8xPCcK1e__a-37" edge="1">
          <mxGeometry width="50" height="50" relative="1" as="geometry">
            <mxPoint x="150" y="930" as="sourcePoint" />
            <mxPoint x="200" y="880" as="targetPoint" />
          </mxGeometry>
        </mxCell>
        <mxCell id="y6UDtGSvH8xPCcK1e__a-50" value="" style="endArrow=none;html=1;rounded=0;strokeColor=#0B4D6A;entryX=0.5;entryY=1;entryDx=0;entryDy=0;exitX=0.5;exitY=0;exitDx=0;exitDy=0;dashed=1;fontSize=16;" parent="1" source="y6UDtGSvH8xPCcK1e__a-47" target="y6UDtGSvH8xPCcK1e__a-37" edge="1">
          <mxGeometry width="50" height="50" relative="1" as="geometry">
            <mxPoint x="440" y="910" as="sourcePoint" />
            <mxPoint x="490" y="860" as="targetPoint" />
          </mxGeometry>
        </mxCell>
        <mxCell id="y6UDtGSvH8xPCcK1e__a-51" value="" style="endArrow=none;html=1;rounded=0;strokeColor=#0B4D6A;entryX=0.5;entryY=1;entryDx=0;entryDy=0;exitX=0.5;exitY=0;exitDx=0;exitDy=0;dashed=1;fontSize=16;" parent="1" source="y6UDtGSvH8xPCcK1e__a-48" target="y6UDtGSvH8xPCcK1e__a-37" edge="1">
          <mxGeometry width="50" height="50" relative="1" as="geometry">
            <mxPoint x="620" y="900" as="sourcePoint" />
            <mxPoint x="670" y="850" as="targetPoint" />
          </mxGeometry>
        </mxCell>
        <mxCell id="y6UDtGSvH8xPCcK1e__a-52" value="Art Factor" style="rounded=0;whiteSpace=wrap;html=1;strokeColor=#BAC8D3;fontColor=#EEEEEE;fillColor=#09555B;fontSize=16;" parent="1" vertex="1">
          <mxGeometry x="125" y="960" width="120" height="60" as="geometry" />
        </mxCell>
        <mxCell id="y6UDtGSvH8xPCcK1e__a-53" value="Multiply / Divide" style="rounded=1;whiteSpace=wrap;html=1;strokeColor=#BAC8D3;fontColor=#EEEEEE;fillColor=#09555B;fontSize=16;" parent="1" vertex="1">
          <mxGeometry x="255" y="960" width="120" height="60" as="geometry" />
        </mxCell>
        <mxCell id="y6UDtGSvH8xPCcK1e__a-54" value="Art Term" style="rounded=1;whiteSpace=wrap;html=1;strokeColor=#BAC8D3;fontColor=#EEEEEE;fillColor=#09555B;fontSize=16;" parent="1" vertex="1">
          <mxGeometry x="385" y="960" width="120" height="60" as="geometry" />
        </mxCell>
        <mxCell id="y6UDtGSvH8xPCcK1e__a-55" value="" style="endArrow=none;html=1;rounded=0;strokeColor=#0B4D6A;entryX=0.5;entryY=1;entryDx=0;entryDy=0;exitX=0.5;exitY=0;exitDx=0;exitDy=0;fontSize=16;" parent="1" source="y6UDtGSvH8xPCcK1e__a-52" target="y6UDtGSvH8xPCcK1e__a-46" edge="1">
          <mxGeometry width="50" height="50" relative="1" as="geometry">
            <mxPoint x="145" y="990" as="sourcePoint" />
            <mxPoint x="195" y="940" as="targetPoint" />
          </mxGeometry>
        </mxCell>
        <mxCell id="y6UDtGSvH8xPCcK1e__a-56" value="" style="endArrow=none;html=1;rounded=0;strokeColor=#0B4D6A;entryX=0.5;entryY=1;entryDx=0;entryDy=0;exitX=0.5;exitY=0;exitDx=0;exitDy=0;dashed=1;fontSize=16;" parent="1" source="y6UDtGSvH8xPCcK1e__a-53" target="y6UDtGSvH8xPCcK1e__a-46" edge="1">
          <mxGeometry width="50" height="50" relative="1" as="geometry">
            <mxPoint x="315" y="990" as="sourcePoint" />
            <mxPoint x="365" y="940" as="targetPoint" />
          </mxGeometry>
        </mxCell>
        <mxCell id="y6UDtGSvH8xPCcK1e__a-57" value="" style="endArrow=none;html=1;rounded=0;strokeColor=#0B4D6A;entryX=0.5;entryY=1;entryDx=0;entryDy=0;exitX=0.5;exitY=0;exitDx=0;exitDy=0;dashed=1;fontSize=16;" parent="1" source="y6UDtGSvH8xPCcK1e__a-54" target="y6UDtGSvH8xPCcK1e__a-46" edge="1">
          <mxGeometry width="50" height="50" relative="1" as="geometry">
            <mxPoint x="445" y="939.2893218813452" as="sourcePoint" />
            <mxPoint x="445" y="889.2893218813452" as="targetPoint" />
          </mxGeometry>
        </mxCell>
        <mxCell id="y6UDtGSvH8xPCcK1e__a-58" value="Identifier" style="rounded=1;whiteSpace=wrap;html=1;strokeColor=#BAC8D3;fontColor=#EEEEEE;fillColor=#09555B;fontSize=16;" parent="1" vertex="1">
          <mxGeometry x="-70" y="1060" width="120" height="60" as="geometry" />
        </mxCell>
        <mxCell id="y6UDtGSvH8xPCcK1e__a-59" value="Const / Bool Const" style="rounded=1;whiteSpace=wrap;html=1;strokeColor=#BAC8D3;fontColor=#EEEEEE;fillColor=#09555B;fontSize=16;" parent="1" vertex="1">
          <mxGeometry x="60" y="1060" width="120" height="60" as="geometry" />
        </mxCell>
        <mxCell id="y6UDtGSvH8xPCcK1e__a-60" value="Literal" style="rounded=1;whiteSpace=wrap;html=1;strokeColor=#BAC8D3;fontColor=#EEEEEE;fillColor=#09555B;fontSize=16;" parent="1" vertex="1">
          <mxGeometry x="190" y="1060" width="120" height="60" as="geometry" />
        </mxCell>
        <mxCell id="y6UDtGSvH8xPCcK1e__a-61" value="( Art Expr 1 )" style="rounded=1;whiteSpace=wrap;html=1;strokeColor=#BAC8D3;fontColor=#EEEEEE;fillColor=#09555B;fontSize=16;" parent="1" vertex="1">
          <mxGeometry x="320" y="1060" width="120" height="60" as="geometry" />
        </mxCell>
        <mxCell id="y6UDtGSvH8xPCcK1e__a-62" value="" style="endArrow=none;html=1;rounded=0;strokeColor=#0B4D6A;entryX=0.5;entryY=1;entryDx=0;entryDy=0;exitX=0.5;exitY=0;exitDx=0;exitDy=0;dashed=1;fontSize=16;" parent="1" source="y6UDtGSvH8xPCcK1e__a-58" target="y6UDtGSvH8xPCcK1e__a-52" edge="1">
          <mxGeometry width="50" height="50" relative="1" as="geometry">
            <mxPoint x="-135" y="1040" as="sourcePoint" />
            <mxPoint x="-85" y="990" as="targetPoint" />
          </mxGeometry>
        </mxCell>
        <mxCell id="y6UDtGSvH8xPCcK1e__a-63" value="" style="endArrow=none;html=1;rounded=0;strokeColor=#0B4D6A;entryX=0.5;entryY=1;entryDx=0;entryDy=0;exitX=0.5;exitY=0;exitDx=0;exitDy=0;dashed=1;fontSize=16;" parent="1" source="y6UDtGSvH8xPCcK1e__a-59" target="y6UDtGSvH8xPCcK1e__a-52" edge="1">
          <mxGeometry width="50" height="50" relative="1" as="geometry">
            <mxPoint x="125" y="1100" as="sourcePoint" />
            <mxPoint x="175" y="1050" as="targetPoint" />
          </mxGeometry>
        </mxCell>
        <mxCell id="y6UDtGSvH8xPCcK1e__a-64" value="" style="endArrow=none;html=1;rounded=0;strokeColor=#0B4D6A;entryX=0.5;entryY=1;entryDx=0;entryDy=0;exitX=0.5;exitY=0;exitDx=0;exitDy=0;dashed=1;fontSize=16;" parent="1" source="y6UDtGSvH8xPCcK1e__a-60" target="y6UDtGSvH8xPCcK1e__a-52" edge="1">
          <mxGeometry width="50" height="50" relative="1" as="geometry">
            <mxPoint x="225" y="1110" as="sourcePoint" />
            <mxPoint x="275" y="1060" as="targetPoint" />
          </mxGeometry>
        </mxCell>
        <mxCell id="y6UDtGSvH8xPCcK1e__a-65" value="" style="endArrow=none;html=1;rounded=0;strokeColor=#0B4D6A;entryX=0.5;entryY=1;entryDx=0;entryDy=0;exitX=0.5;exitY=0;exitDx=0;exitDy=0;dashed=1;fontSize=16;" parent="1" source="y6UDtGSvH8xPCcK1e__a-61" target="y6UDtGSvH8xPCcK1e__a-52" edge="1">
          <mxGeometry width="50" height="50" relative="1" as="geometry">
            <mxPoint x="355" y="1100" as="sourcePoint" />
            <mxPoint x="405" y="1050" as="targetPoint" />
          </mxGeometry>
        </mxCell>
        <mxCell id="aLAH5wFiZqjuSMiARG9--2" value="" style="endArrow=none;html=1;rounded=0;entryX=0.5;entryY=1;entryDx=0;entryDy=0;exitX=0.5;exitY=0;exitDx=0;exitDy=0;fillColor=#0050ef;strokeColor=#001DBC;" parent="1" source="aLAH5wFiZqjuSMiARG9--3" target="y6UDtGSvH8xPCcK1e__a-32" edge="1">
          <mxGeometry width="50" height="50" relative="1" as="geometry">
            <mxPoint x="840" y="600" as="sourcePoint" />
            <mxPoint x="870" y="720" as="targetPoint" />
          </mxGeometry>
        </mxCell>
        <mxCell id="aLAH5wFiZqjuSMiARG9--3" value="Art Factor" style="rounded=0;whiteSpace=wrap;html=1;strokeColor=#BAC8D3;fontColor=#EEEEEE;fillColor=#09555B;fontSize=16;" parent="1" vertex="1">
          <mxGeometry x="760" y="630" width="120" height="60" as="geometry" />
        </mxCell>
        <mxCell id="yVUBsPdqC7UKRxRuTg1o-1" value="" style="endArrow=none;html=1;rounded=0;entryX=0.5;entryY=1;entryDx=0;entryDy=0;exitX=0.5;exitY=0;exitDx=0;exitDy=0;fillColor=#0050ef;strokeColor=#001DBC;dashed=1;" edge="1" parent="1" source="yVUBsPdqC7UKRxRuTg1o-2" target="y6UDtGSvH8xPCcK1e__a-32">
          <mxGeometry width="50" height="50" relative="1" as="geometry">
            <mxPoint x="990" y="600" as="sourcePoint" />
            <mxPoint x="1020" y="570" as="targetPoint" />
          </mxGeometry>
        </mxCell>
        <mxCell id="yVUBsPdqC7UKRxRuTg1o-2" value="(Bool Expr 1)" style="rounded=1;whiteSpace=wrap;html=1;strokeColor=#BAC8D3;fontColor=#EEEEEE;fillColor=#09555B;fontSize=16;dashed=1;dashPattern=8 8;" vertex="1" parent="1">
          <mxGeometry x="910" y="630" width="120" height="60" as="geometry" />
        </mxCell>
        <mxCell id="yVUBsPdqC7UKRxRuTg1o-3" value="Bool Expr 5" style="rounded=0;whiteSpace=wrap;html=1;strokeColor=#BAC8D3;fontColor=#EEEEEE;fillColor=#09555B;fontSize=16;" vertex="1" parent="1">
          <mxGeometry x="350" y="600" width="120" height="60" as="geometry" />
        </mxCell>
        <mxCell id="yVUBsPdqC7UKRxRuTg1o-4" value="" style="endArrow=none;html=1;rounded=0;strokeColor=#0B4D6A;entryX=0.5;entryY=1;entryDx=0;entryDy=0;exitX=0.5;exitY=0;exitDx=0;exitDy=0;fontSize=16;" edge="1" parent="1" source="yVUBsPdqC7UKRxRuTg1o-3" target="y6UDtGSvH8xPCcK1e__a-31">
          <mxGeometry width="50" height="50" relative="1" as="geometry">
            <mxPoint x="120" y="540" as="sourcePoint" />
            <mxPoint x="290" y="520" as="targetPoint" />
          </mxGeometry>
        </mxCell>
        <mxCell id="yVUBsPdqC7UKRxRuTg1o-7" value="(Bool Expr 1)" style="rounded=1;whiteSpace=wrap;html=1;strokeColor=#BAC8D3;fontColor=#EEEEEE;fillColor=#09555B;fontSize=16;" vertex="1" parent="1">
          <mxGeometry x="470" y="720" width="120" height="60" as="geometry" />
        </mxCell>
        <mxCell id="yVUBsPdqC7UKRxRuTg1o-8" value="" style="endArrow=none;html=1;rounded=0;strokeColor=#0B4D6A;entryX=0.5;entryY=1;entryDx=0;entryDy=0;exitX=0.5;exitY=0;exitDx=0;exitDy=0;fontSize=16;dashed=1;" edge="1" parent="1" source="yVUBsPdqC7UKRxRuTg1o-7" target="yVUBsPdqC7UKRxRuTg1o-3">
          <mxGeometry width="50" height="50" relative="1" as="geometry">
            <mxPoint x="430" y="720" as="sourcePoint" />
            <mxPoint x="600" y="700" as="targetPoint" />
          </mxGeometry>
        </mxCell>
      </root>
    </mxGraphModel>
  </diagram>
</mxfile>
